<svg xmlns="http://www.w3.org/2000/svg" width="26.751" height="26.862" viewBox="0 0 26.751 26.862">
  <g id="phone-2" transform="translate(1 1.111)">
    <path id="Path_1" data-name="Path 1" d="M21.355,28.165A20.377,20.377,0,0,1,1,7.81a.416.416,0,0,1,.122-.292l3.86-3.86a.831.831,0,0,1,1.175,0l5.228,5.228a.831.831,0,0,1,0,1.175L7.818,13.627l7.72,7.72L19.1,17.78a.831.831,0,0,1,1.175,0l5.228,5.228a.831.831,0,0,1,0,1.175l-3.86,3.86A.416.416,0,0,1,21.355,28.165Z" transform="translate(-1 -3.414)" fill="none" stroke="#fff" stroke-width="2"/>
  </g>
</svg>
